<svg :attrs xmlns="http://www.w3.org/2000/svg" style="isolation:isolate" viewBox="86.103 306.335 1649.127 1208.665"><path d="M972.953 477.084H802.204V306.335h170.749v170.749zm0 214.657H802.204V520.992h170.749v170.749zm0 214.656H802.204V735.648h170.749v170.749zm-207.34-214.656H594.864V520.992h170.749v170.749zm0 214.656H594.864V735.648h170.749v170.749zM558.275 691.741h-170.75V520.992h170.75v170.749zm0 214.656h-170.75V735.648h170.75v170.749zm-204.9 0H182.624V735.648h170.751v170.749zm826.918 0h-170.75V735.648h170.75v170.749zM644.404 1515C15.533 1515 88.712 961.281 88.712 961.281h1049.901c177.06 0 235.603-56.102 235.603-56.102s-100.011-129.283 17.074-285.398c131.722 75.619 126.844 187.826 126.844 187.826s134.16-43.907 217.096 31.71c-46.346 151.236-251.246 141.479-251.246 141.479S1293.718 1515 644.404 1515z" fill-rule="evenodd" fill="#00A0DC"/></svg>
