<svg
    :attrs
    xmlns="http://www.w3.org/2000/svg"
    viewBox="0 0 216.414 232.01"
>
    <path d="M106.888-1.07c-29.661.242-58.193 3.454-74.82 11.09 0 0-32.978 14.752-32.978 65.082 0 11.525-.224 25.305.14 39.918 1.198 49.22 9.024 97.729 54.532 109.774 20.982 5.554 38.998 6.717 53.507 5.92 26.31-1.459 41.081-9.39 41.081-9.39l-.868-19.09s-18.802 5.928-39.919 5.205c-20.92-.717-43.007-2.255-46.391-27.942-.313-2.256-.469-4.67-.469-7.203 0 0 20.538 5.02 46.566 6.213 15.915.73 30.839-.933 45.998-2.741 29.07-3.472 54.381-21.383 57.562-37.75 5.013-25.78 4.6-62.914 4.6-62.914 0-50.33-32.975-65.082-32.975-65.082-16.627-7.636-45.176-10.848-74.837-11.09ZM73.319 38.255c12.355 0 21.71 4.749 27.896 14.248l6.015 10.082 6.015-10.082c6.185-9.499 15.54-14.248 27.896-14.248 10.678 0 19.281 3.754 25.851 11.076 6.369 7.323 9.54 17.221 9.54 29.676v60.941h-24.144v-59.15c0-12.469-5.246-18.798-15.74-18.798-11.603 0-17.417 7.507-17.417 22.352v32.377H95.229V84.352C95.23 69.507 89.413 62 77.811 62c-10.494 0-15.74 6.33-15.74 18.798v59.15H37.927v-60.94c0-12.456 3.171-22.354 9.541-29.677C54.037 42.01 62.64 38.255 73.32 38.255z"/>
</svg>
