<svg :attrs style="isolation:isolate" viewBox="0 0 630 909"><path d="M346.553 574.459a924.477 924.477 0 01-32.713.602c-10.909 0-21.868-.201-32.814-.602-92.152-2.879-165.588-17.731-218.461-38.914-24.856-9.567-46.133-20.825-62.565-33.7v134.63c35.726 42.552 155.583 81.795 313.827 81.795 158.245 0 278.102-39.243 313.828-81.795v-134.63c-16.545 12.961-38.011 24.305-63.079 33.901-52.849 21.082-126.134 35.849-218.023 38.713zM1.806 661.884v117.458c0 2.32.54 4.512 1.469 6.459C18.1 855.91 150.736 908.243 315.633 908.243c164.521 0 296.944-52.119 312.259-121.969 1.004-2.062 1.569-4.426 1.569-6.932V661.913c-51.907 41.692-158.86 74.462-313.828 74.462-154.98 0-261.933-32.798-313.827-74.491zm625.96-539.542C613.682 60.741 505.373 0 315.633 0 126.37 0 18.175 60.44 3.651 121.883c-1.067 2.106-1.845 4.412-1.845 7.018v33.028c35.613 42.408 154.616 81.551 313.827 81.551 159.211 0 278.227-39.143 313.828-81.551v-33.028c0-2.406-.703-4.568-1.695-6.559zM1.806 185.513v134.63c33.115 39.444 138.498 76.052 279.758 81.179 1.444.058 2.925.072 4.381.115 4.093.129 8.172.258 12.327.329 5.737.115 11.524.172 17.361.172 5.838 0 11.625-.057 17.361-.157 4.143-.072 8.235-.201 12.327-.33 1.457-.043 2.938-.072 4.381-.114 141.26-5.142 246.644-41.75 279.759-81.18V185.513c-61.096 47.879-190.255 73.201-313.828 73.201-123.572 0-252.719-25.322-313.827-73.201zm346.553 230.528a924.477 924.477 0 01-32.713.602c-10.909 0-21.868-.201-32.814-.602-92.152-2.879-165.588-17.731-218.461-38.914-24.856-9.567-46.133-20.825-62.565-33.7v134.63c35.726 42.552 155.583 81.795 313.827 81.795 158.245 0 278.102-39.243 313.828-81.795v-134.63c-16.545 12.961-38.011 24.305-63.08 33.901-52.848 21.082-126.133 35.849-218.022 38.713z" fill="#BDBDBD"/><path d="M142.888 705.44L24.331 499.819a61.69 61.69 0 010-61.565l118.557-205.469c11.023-19.099 31.392-30.833 53.336-30.833h236.962c21.995 0 42.415 11.734 53.336 30.833L605.13 438.356a61.687 61.687 0 010 61.564L486.573 705.542c-11.023 19.099-31.392 30.833-53.336 30.833H196.376a62.17 62.17 0 01-53.488-30.935z" fill="#FFF"/><path d="M152.996 691.471L41.5 498.092c-10.363-17.931-10.363-40.027 0-57.908l111.496-193.43c10.414-17.982 29.564-29.004 50.238-29.004h222.993c20.674 0 39.875 11.022 50.237 29.004l111.599 193.329c10.362 17.931 10.362 40.027 0 57.907L476.515 691.522c-10.413 17.982-29.563 29.005-50.237 29.005H203.335c-20.775 0-39.925-11.074-50.339-29.056z" fill="#7C4DFF"/><path d="M202.421 431.905h229.445a5.17 5.17 0 005.181-5.181v-43.025c0-28.598-23.214-51.811-51.812-51.811H247.477c-40.078-.051-72.537 32.407-72.537 72.485-.051 15.29 12.242 27.532 27.481 27.532zm22.502 190.078h137.098c41.399 0 75.026-33.627 75.026-75.026 0-13.816-11.175-25.042-25.043-25.042H179.918c-2.844 0-4.978 2.286-4.978 4.978v45.005c-.051 27.684 22.401 50.085 49.983 50.085z" fill="#F7F7F7"/><path d="M185.099 426.216l171.132 171.131c11.327 11.327 29.664 11.327 40.992 0l29.665-29.665c11.327-11.328 11.327-29.665 0-40.992L255.807 355.559c-11.327-11.328-29.665-11.328-40.992 0l-29.665 29.664c-11.429 11.328-11.429 29.716-.051 40.993z" fill="#F7F7F7"/><path d="M359.024 600.242l-100.525-78.327h22.249l78.276 78.327zM252.963 352.714l79.19 79.191h26.871l-106.061-79.191z" fill="#444" opacity=".3"/></svg>
