<svg :attrs viewBox="0 0 64 64" xmlns="http://www.w3.org/2000/svg"><title>Tailwind CSS</title><path fill="#14B4C6" d="M32 16.3c-7.2 0-11.7 3.6-13.5 10.8 2.7-3.6 5.85-4.95 9.45-4.05 2.054.514 3.522 2.004 5.147 3.653C35.744 29.39 38.808 32.5 45.5 32.5c7.2 0 11.7-3.6 13.5-10.8-2.7 3.6-5.85 4.95-9.45 4.05-2.054-.514-3.522-2.004-5.147-3.653C41.756 19.41 38.692 16.3 32 16.3zM18.5 32.5c-7.2 0-11.7 3.6-13.5 10.8 2.7-3.6 5.85-4.95 9.45-4.05 2.054.514 3.522 2.004 5.147 3.653C22.244 45.59 25.308 48.7 32 48.7c7.2 0 11.7-3.6 13.5-10.8-2.7 3.6-5.85 4.95-9.45 4.05-2.054-.514-3.522-2.004-5.147-3.653C28.256 35.61 25.192 32.5 18.5 32.5z"></path></svg>
