<svg xmlns="http://www.w3.org/2000/svg" width="429" height="353" fill="none"><ellipse cx="208" cy="196" rx="208" ry="157" fill="#0ea5e9"/><ellipse cx="208" cy="196" rx="181" ry="118" fill="#fff"/><circle cx="208" cy="196" r="86" fill="#0ea5e9"/><path d="M212.828 167.937 376.371 4.853c6.489-6.471 17.008-6.471 23.496 0l24.267 24.198c6.488 6.47 6.488 16.96 0 23.43L220.896 255.147c-6.488 6.471-17.008 6.471-23.496 0L96.866 154.896c-6.488-6.47-6.488-16.96 0-23.43l21.353-21.292c6.53-6.511 17.08-6.628 23.753-.262l60.937 58.134a7.108 7.108 0 0 0 9.919-.109Z" fill="#0369a1"/></svg>
