<svg xmlns="http://www.w3.org/2000/svg" viewBox="0 0 499.996 669.603"><path d="M318.734 372.109c-28.861 13.939-84.306 113.21-48.898 127.05 31.836 12.446 40.597 70.995 28.598 102.4-12 31.409-25.508 27.902-21.218 7.053 4.29-20.849-1.617-58.873-47.255-81.405-30.426-15.022-41.027-46.916-31.805-95.682 18.845-84.524 108.94-75.096 125.63-65.863 8.809-7.647 23.978-7.784 45.508-.412 55.277 25.068 83.237 59.455 83.88 103.16.642 43.708 14.14 71.99 40.494 84.845 10.284 8.356 8.034 12.855-6.749 13.498-22.175.964-61.705-46.279-66.526-83.881-3.214-25.067-36.961-44.671-101.24-58.812-5.885-24.099-6.028-41.418-.419-51.951Zm-188.03-6.856c-55.278 25.068-83.238 59.455-83.88 103.16-.643 43.708-14.141 71.99-40.494 84.845-10.284 8.356-8.035 12.855 6.749 13.498 22.175.964 61.705-46.279 66.526-83.881 3.214-25.067 36.96-44.671 101.24-58.812 13.498-55.277-3.214-74.881-50.141-58.81Z" fill="#f79e9e"/><path d="M151.584 312.539c-55.986-2.711-80.581-25.984-73.785-69.818 6.023-38.853 2.626-84.508-9.889-121.66C55.042 82.856 32.534 53.639.714 50.045c-1.283-.14-1.219 1.796 3.445 5.202 42.478 33.455 54.466 79.151 29.732 137.73-41.506 98.303-43.004 227.48 50.789 219.62 17.83-1.492 35.767-4.255 50.558-3.518-8.346 19.602-18.235 37.848-29.669 54.738-42.422 62.669-15.185 170.17 7.714 196.68 22.898 26.514 11.087-11.811 8.677-26.996-2.411-15.185-1.138-120.17 46.279-149.44 35.245-21.76 44.286-58.48 58.397-82.493 14.072-11.046 29.348-10.662 45.827 1.153a.17.17 0 0 1 .014.009c13.743 24.008 23.049 59.915 57.737 81.331 47.417 29.275 48.689 134.26 46.279 149.44-2.41 15.18-14.221 53.51 8.677 26.996s50.135-134.02 7.713-196.68c-11.434-16.89-21.323-35.136-29.668-54.738 14.791-.737 32.728 2.026 50.558 3.518 93.793 7.851 92.295-121.32 50.789-219.62-24.734-58.581-12.747-104.28 29.732-137.73 4.664-3.406 4.727-5.342 3.445-5.202-31.82 3.594-54.329 32.811-67.197 71.016-12.514 37.155-15.911 82.81-9.888 121.66 6.566 42.351-16.171 65.508-68.21 69.472 48.053-121.806 58.03-207.003 29.931-255.59-43.241-74.772-206.33-76.167-260.32 0-35.112 49.534-25.269 134.847 29.529 255.936Z" fill="#f05252"/><path d="M276.324 316.679c0-23.812 27.656-43.145 61.722-43.145 34.065 0 61.721 19.333 61.721 43.145 0 23.813-27.656 43.146-61.721 43.146-34.066 0-61.722-19.333-61.722-43.146Zm-175.47 0c0-23.812 27.657-43.145 61.722-43.145s61.722 19.333 61.722 43.145c0 23.813-27.657 43.146-61.722 43.146s-61.722-19.333-61.722-43.146Z" fill="#f79e9e"/><path d="M299.974 327.079c2.092-6.366 10.637-35.7 38.348-35.016 27.275.673 35.942 27.13 37.65 31.71 1.707 4.58 1.735 10.393-.872 13.101-2.736 2.842-6.981 2.645-9.761-1.959-4.801-7.953-5.982-24.648-27.017-24.487-19.868.153-20.865 17.088-24.839 24.487-2.678 4.986-6.88 7.583-10.72 5.877-3.84-1.707-4.881-7.346-2.789-13.713Zm-175.47 0c2.091-6.366 10.637-35.7 38.347-35.016 27.275.673 35.943 27.13 37.65 31.71 1.708 4.58 1.736 10.393-.871 13.101-2.736 2.842-6.982 2.645-9.762-1.959-4.801-7.953-5.981-24.648-27.017-24.487-19.868.153-20.865 17.088-24.839 24.487-2.678 4.986-6.88 7.583-10.72 5.877-3.84-1.707-4.88-7.346-2.788-13.713Z" fill="#f05252"/></svg>