<svg xmlns="http://www.w3.org/2000/svg" viewBox="135.999 347.993 497.026 338.435" fill="none"><path d="M479.99 350.16c23.54.58 51.84 1.89 84.9 3.93 32.62 2.02 53 4.37 61.13 7.05 5.11 2.06 7.43 7.01 6.94 14.84-.54 8.7-2.66 18.39-6.38 29.08-4.21 11.53-7.96 26.36-11.26 44.49-5.9 31.94-18.71 62.59-38.42 91.94-11.54 17.19-25.87 33.55-42.98 49.08-17.09 15.1-33.05 26.12-47.89 33.06L463.12 634l-3.17 19.45c-2.57 13.38-5.9 21.25-9.97 23.62-5.43 3.16-20.59 4.62-45.46 4.4-25.77.15-42.2 1.1-49.3 2.85-6.69 2.21-20.25 2.68-40.69 1.42-18.7-1.16-29.07-2.89-31.12-5.2-2.04-2.31-3.03-11.1-2.96-26.38l.11-22.92-25.62-19.92c-16.24-12.79-34.55-30.95-54.92-54.48-20.38-23.53-33.63-42.25-39.76-56.16-6.92-15.27-12.88-35.29-17.9-60.05-4.99-25.2-7.05-44.97-6.16-59.32.97-15.66 2.4-24.74 4.3-27.24 3.8-5 18.77-6.92 44.89-5.74 17.4 1.07 52.72 1.73 105.98 1.96 53.28-.2 82.79-.78 88.52-1.74 5.3-.98 38.67-.45 100.1 1.61Zm-111.55 22.47c-2.78 2-16.19 3.69-40.24 5.08-6.77.38-12.33 1.35-16.69 2.94-2.93 1.28-5.62 3.52-8.08 6.72-2.43 2.96-3.84 6.16-4.24 9.59-.32 2.75 1.22 6.52 4.6 11.31 3.41 4.57 6.38 7 8.89 7.29 8.69 1.01 23.8.67 45.33-1.01 21.75-1.65 35.18-3.46 40.28-5.42 1.96-.93 5.49-1.34 10.57-1.21 8.34.04 14.69-2.7 19.04-8.23 2.71-3.4 4.27-6.81 4.66-10.24.58-5.03-1.99-9.85-7.72-14.46-3.4-2.71-8.75-4.49-16.08-5.34-7.55-.87-15.55-.87-24 0-9.36.77-14.81 1.76-16.32 2.98Zm-24.75 72.6c-1.79 1.42-3.37 2.04-4.74 1.89-.92-.11-2.39.65-4.44 2.27-2.04 1.62-4.55 2.26-7.53 1.91-3.89-.45-8.59 1.09-14.1 4.63-5.28 3.56-9.38 7.96-12.31 13.18-3.46 5.86-5.31 9.82-5.55 11.88-.21 1.83.6 4.82 2.44 8.98 3.9 8.34 10.2 13.01 18.9 14.01 12.58 1.46 29.16-4.51 49.72-17.89 10.03-6.49 17.33-9.47 21.9-8.94 2.75.32 6.4 1.78 10.97 4.4 6.49 4 10.81 7.74 12.96 11.24 2.37 3.52 3.23 8.14 2.57 13.86-.82 7.09-2.71 13.37-5.66 18.82-2.72 5.48-10.64 18.82-23.76 40.03-5.69 9.08-10.7 15.34-15.04 18.78-4.11 3.47-10.27 6.58-18.47 9.34-6.72 2-11.35 3.9-13.88 5.7-2.53 1.79-3.96 4.18-4.31 7.15-.26 2.29-.26 4.26.01 5.91.95 9.85 4.18 17.99 9.69 24.42 2.63 3.32 5.78 5.19 9.44 5.61 9.15 1.06 26.32-10.05 51.51-33.34 13.21-11.92 19.94-19.02 20.21-21.31.24-2.06 2.44-6.09 6.62-12.1 9.34-12.6 15.84-29.7 19.51-51.3 1.41-8.18 2.21-13.08 2.4-14.68.69-5.95.49-13.27-.58-21.98-1.23-9.42-3.51-16.75-6.84-22.01-3.1-5.23-8.52-10.49-16.26-15.79l-11.6-7.95-23.34-2.7c-4.35-.5-7.91-.8-10.68-.89-2.75-.32-5.05-.47-6.9-.45-1.83-.21-3.69-.2-5.57.05-1.86.02-3.27.2-4.24.55-.71.15-2.38.54-5 1.16-2.37.42-4.39.88-6.07 1.38-5.68.97-9.66 2.36-11.98 4.18Z" fill-rule="evenodd" class="fills" fill="#8db007"/></svg>
